# xmcd
#
# Track frame offsets:
#	150
#	15375
#	29135
#	41780
#	55535
#	70820
#	85557
#	98990
#	113877
#	130907
#	151937
#	168115
#	181517
#
# Disc length: 2574 seconds
#
# Revision: 0
# Processed by: cddbd v1.4PL0 Copyright (c) Steve Scherf et al.
# Submitted via: dBpowerAMP V4.0
#
DISCID=970a0c0d
DTITLE=Brent Burns - Tropical Nuts
DYEAR=1900
DGENRE=Country
TTITLE0=Jamaicamecrazi
TTITLE1=Top Down and Ridin' Around
TTITLE2=Victoria's Secret
TTITLE3=I'm Goin' Ugly Early Tonight
TTITLE4=Size Matters
TTITLE5=Men Fake It Too
TTITLE6=They're Gettin' Married Again
TTITLE7=Sympathy Card
TTITLE8=It's Always the Man's Fault
TTITLE9=Seasick Again
TTITLE10=Shhot for the  Moon
TTITLE11=Melancholy Mood
TTITLE12=FTF (Forget The French)
EXTD=
EXTT0=
EXTT1=
EXTT2=
EXTT3=
EXTT4=
EXTT5=
EXTT6=
EXTT7=
EXTT8=
EXTT9=
EXTT10=
EXTT11=
EXTT12=
PLAYORDER=
